<svg version="1.1" xmlns="http://www.w3.org/2000/svg" viewBox="0 0 1929.9755120498503 1094.3869649905087" width="1929.9755120498503" height="1094.3869649905087">
  <!-- svg-source:excalidraw -->
  
  <defs>
    <style class="style-fonts">
      @font-face {
        font-family: "Virgil";
        src: url("https://excalidraw.com/Virgil.woff2");
      }
      @font-face {
        font-family: "Cascadia";
        src: url("https://excalidraw.com/Cascadia.woff2");
      }
    </style>
  </defs>
  <g stroke-linecap="round" transform="translate(10.976268069044366 390.0604964507879) rotate(0 104.7284461887912 75.74698938183013)"><path d="M32 0 M32 0 C76.79 -1.58, 117.86 -0.77, 177.46 0 M32 0 C82.15 1.3, 132.58 0.5, 177.46 0 M177.46 0 C197.39 -1.33, 211.01 12.27, 209.46 32 M177.46 0 C197.5 0.45, 208.79 9.21, 209.46 32 M209.46 32 C211.08 50.49, 207.38 67.98, 209.46 119.49 M209.46 32 C209.43 52.11, 208.27 69.96, 209.46 119.49 M209.46 119.49 C210.92 142.41, 198.12 153.21, 177.46 151.49 M209.46 119.49 C207.78 142.79, 196.9 153.62, 177.46 151.49 M177.46 151.49 C146.3 150.72, 112.66 150.47, 32 151.49 M177.46 151.49 C129.83 152.21, 81.88 151.94, 32 151.49 M32 151.49 C10.93 150.71, 1.26 139.53, 0 119.49 M32 151.49 C12.17 153.39, -1.27 142.16, 0 119.49 M0 119.49 C-1.32 88.26, -1.17 56.16, 0 32 M0 119.49 C-1.18 89.26, -1.64 58.33, 0 32 M0 32 C1.38 11.78, 9.06 -1.79, 32 0 M0 32 C2.08 8.44, 10.88 0.87, 32 0" stroke="black" stroke-width="1" fill="none"></path></g><g stroke-linecap="round"><g transform="translate(11.147082156315449 418.44669204453226) rotate(0 104.00850561186836 -0.7171710163609646)"><path d="M-1.15 -0.4 C33.82 -0.56, 174.07 -0.96, 209.16 -0.86 M0.45 -1.66 C35.36 -1.7, 173.67 -0.32, 208.43 0.23" stroke="black" stroke-width="1" fill="none"></path></g></g><mask></mask><g stroke-linecap="round" transform="translate(180.71371975297865 397.2036310093888) rotate(0 6.69668864868833 6.547873345384119)"><path d="M0.23 4.18 C0.23 4.18, 0.23 4.18, 0.23 4.18 M0.23 4.18 C0.23 4.18, 0.23 4.18, 0.23 4.18 M1.31 8.16 C2.64 7.05, 5.07 5.2, 6.88 2.99 M1.94 7.95 C3.96 6.81, 5.27 5.02, 6.9 2.37 M3.54 13.62 C4.25 10.84, 7.43 6.93, 11.13 4.03 M3.05 13.19 C6.02 10.63, 8.37 7.01, 12.55 2.21 M6.88 13.85 C10.5 12.13, 12.49 8.01, 14.67 7.36 M6.91 14.52 C9.54 11.25, 11.71 9.12, 14.22 6.33 M1.47 12.03 C1.47 12.03, 1.47 12.03, 1.47 12.03 M1.47 12.03 C1.47 12.03, 1.47 12.03, 1.47 12.03 M6.7 12.32 C5.87 10, 4.26 8.3, 1.47 6.65 M7 11.84 C5.08 10.02, 2.68 8.33, 0.87 6.55 M12.53 11.7 C9.52 8.38, 6.73 7.01, 1.56 2.39 M13.38 11.14 C10.2 9.74, 8.49 6.45, 1.73 2.12 M13.82 6.65 C10.92 4.93, 9.78 3.73, 6.47 -0.72 M14.38 7.34 C10.96 4.3, 8.07 2.45, 6.01 -0.79" stroke="#868e96" stroke-width="0.5" fill="none"></path><path d="M8.73 0.77 C9.89 1.05, 11.23 1.41, 12.08 2.43 C12.93 3.46, 13.91 5.23, 13.83 6.92 C13.75 8.61, 12.95 11.58, 11.61 12.58 C10.26 13.59, 7.41 13.01, 5.76 12.95 C4.11 12.9, 2.53 13.18, 1.71 12.24 C0.89 11.3, 1.05 8.69, 0.82 7.33 C0.59 5.96, -0.31 5.27, 0.34 4.06 C0.99 2.85, 3.22 0.62, 4.72 0.06 C6.22 -0.49, 8.53 0.63, 9.32 0.73 C10.1 0.82, 9.28 0.52, 9.44 0.64 M7.74 0.35 C9.1 0.98, 12.07 2.25, 13.22 3.61 C14.36 4.97, 15.02 7.25, 14.6 8.51 C14.18 9.77, 11.97 10.25, 10.69 11.17 C9.4 12.08, 8.3 13.71, 6.91 13.99 C5.53 14.28, 3.71 13.66, 2.38 12.88 C1.04 12.1, -0.63 11.06, -1.1 9.31 C-1.58 7.56, -1.15 3.98, -0.46 2.38 C0.23 0.78, 1.39 0.15, 3.05 -0.29 C4.7 -0.72, 8.45 -0.35, 9.46 -0.24 C10.47 -0.14, 9.23 0.26, 9.11 0.33" stroke="#000000" stroke-width="1" fill="none"></path></g><g stroke-linecap="round" transform="translate(161.35757623100528 396.8530106042025) rotate(0 6.69668864868833 6.547873345384119)"><path d="M-0.23 3.78 C-0.23 3.78, -0.23 3.78, -0.23 3.78 M-0.23 3.78 C-0.23 3.78, -0.23 3.78, -0.23 3.78 M1.1 8.03 C2.98 7.44, 4.4 5.01, 6.1 1.13 M0.39 8.98 C3.18 5.99, 4.46 3.76, 6.73 2.25 M3.58 11.07 C5.35 9.33, 6.35 7.72, 10.31 3.52 M3.44 11.44 C5.69 8.87, 7.86 6.22, 11.06 2.71 M6.34 13.52 C9.81 11.61, 12.78 7.94, 13.22 5.29 M5.81 15.2 C8.65 11.7, 11.64 8.13, 14.33 5.52 M3.15 11.62 C3.15 11.62, 3.15 11.62, 3.15 11.62 M3.15 11.62 C3.15 11.62, 3.15 11.62, 3.15 11.62 M9.2 12.07 C7.98 9.01, 4.49 7.15, -0.65 4.58 M9.01 12.13 C6.4 8.04, 2.15 5.74, -0.06 3 M13.67 10.44 C9.3 6.67, 7.4 3.85, 2.46 0.3 M13.23 9.49 C9.38 6.52, 5.78 3.99, 3.25 1.19 M14.77 5.69 C14.03 4.99, 11.62 3.3, 9.13 0.2 M14.41 6.03 C13.17 4.31, 11.33 2.86, 8.71 0.81" stroke="#fa5252" stroke-width="0.5" fill="none"></path><path d="M8.48 0.43 C9.79 0.71, 10.89 2.16, 11.78 3.15 C12.66 4.13, 13.8 4.95, 13.79 6.36 C13.78 7.78, 12.73 10.47, 11.72 11.62 C10.71 12.76, 9.13 13.19, 7.75 13.24 C6.38 13.28, 4.64 12.66, 3.48 11.91 C2.33 11.16, 1.42 10.12, 0.82 8.74 C0.23 7.36, -0.68 5.06, -0.09 3.62 C0.5 2.18, 2.91 0.5, 4.37 0.08 C5.83 -0.33, 7.79 0.93, 8.67 1.13 C9.55 1.33, 9.66 1.25, 9.67 1.3 M6.89 -1.02 C8.35 -1.18, 10.59 0.11, 11.72 1.63 C12.84 3.15, 13.73 6.63, 13.64 8.09 C13.54 9.55, 11.91 9.55, 11.13 10.38 C10.34 11.22, 10.42 12.9, 8.93 13.1 C7.43 13.3, 3.57 12.58, 2.13 11.59 C0.69 10.6, 0.33 8.24, 0.3 7.18 C0.27 6.12, 1.35 6.08, 1.96 5.23 C2.57 4.39, 3.12 2.9, 3.97 2.11 C4.82 1.33, 6.45 0.83, 7.05 0.51 C7.65 0.18, 7.23 0.02, 7.57 0.16" stroke="black" stroke-width="1" fill="none"></path></g><g stroke-linecap="round" transform="translate(140.04652558121882 396.90600040278036) rotate(0 6.69668864868833 6.547873345384119)"><path d="M1.37 3.84 C1.37 3.84, 1.37 3.84, 1.37 3.84 M1.37 3.84 C1.37 3.84, 1.37 3.84, 1.37 3.84 M2.3 9.7 C2.46 7.29, 5.53 5.95, 10.34 -0.37 M1.7 9.33 C5.12 5.85, 8.11 2.35, 9.53 0.46 M2.54 12.83 C6.36 11.1, 9.72 5.9, 13.16 4.74 M2.99 14.1 C4.77 11.44, 7.11 8.72, 11.84 3.64 M8 14.73 C9.34 13.46, 12.17 10.1, 13.27 7.2 M7.8 14.98 C9.89 12.25, 11.82 10.37, 13.86 8.2 M1.79 11.66 C1.79 11.66, 1.79 11.66, 1.79 11.66 M1.79 11.66 C1.79 11.66, 1.79 11.66, 1.79 11.66 M7.64 11.68 C6.83 10.08, 4.8 9.42, 2.18 5.91 M8.41 12.11 C6.03 10.32, 3.88 8.53, 1.79 6.34 M13.49 11.15 C9.77 7.37, 8.98 6.28, 2.92 2.12 M12.15 10.35 C10.49 7.79, 8.08 7.02, 2.67 2.31 M14.54 6.17 C11.86 4.92, 8.25 2.77, 5.72 0.23 M13.79 6.88 C12.1 4.39, 9.39 3.12, 5.62 -0.41" stroke="#15aabf" stroke-width="0.5" fill="none"></path><path d="M4.25 1.13 C5.52 0.69, 8.08 0.26, 9.3 0.67 C10.53 1.07, 11 2.48, 11.62 3.56 C12.24 4.64, 13.23 5.66, 13.01 7.15 C12.79 8.65, 11.41 11.37, 10.32 12.51 C9.23 13.64, 7.89 14.1, 6.48 13.96 C5.06 13.83, 2.9 12.57, 1.84 11.69 C0.78 10.81, 0.21 9.95, 0.1 8.68 C-0.01 7.41, 0.31 5.42, 1.17 4.07 C2.03 2.72, 4.26 1.09, 5.25 0.57 C6.25 0.04, 6.96 0.97, 7.14 0.94 M6.15 0.61 C7.41 0.24, 7.45 1.17, 8.72 1.91 C9.99 2.66, 13.09 4.16, 13.77 5.08 C14.45 6.01, 13.58 6.18, 12.79 7.45 C12.01 8.72, 10.34 11.92, 9.06 12.69 C7.79 13.46, 6.61 12.19, 5.15 12.08 C3.7 11.96, 1.01 13.1, 0.32 12.01 C-0.37 10.92, 1.08 7.27, 1.01 5.53 C0.95 3.79, -0.75 2.26, -0.05 1.57 C0.65 0.88, 4.54 1.67, 5.23 1.39 C5.93 1.11, 4.09 0.06, 4.12 -0.1" stroke="black" stroke-width="1" fill="none"></path></g><g transform="translate(47.339812395250306 454.6316373542601) rotate(0 70 22.5)"><text x="0" y="32" font-family="Virgil, Segoe UI Emoji" font-size="36px" fill="#000000" text-anchor="start" style="white-space: pre;" direction="ltr">Browser</text></g><g stroke-linecap="round" transform="translate(603.8113094521158 125.5647531498796) rotate(0 658.0821012988672 479.4111059203145)"><path d="M33.48 0.77 L1284.24 -0.41 L1292.18 -0.54 L1305.13 5.67 L1312.96 13.37 L1313.57 18.8 L1315.68 33.43 L1315.16 927.54 L1315.84 934.04 L1311.32 944.66 L1303.3 955.3 L1299.36 957.06 L1283.78 957.43 L33.72 958.96 L25.66 958.47 L12.22 955.23 L3.16 947.64 L2 941.42 L1.84 926.81 L-0.29 30.4 L3.81 16.16 L6.37 8.66 L18.96 2.03 L31.81 -1.13" stroke="none" stroke-width="0" fill="#ced4da"></path><path d="M32 0 M32 0 C350.36 4.14, 668.27 4.49, 1284.16 0 M32 0 C344.73 0.22, 657.87 0.17, 1284.16 0 M1284.16 0 C1303.92 1.95, 1315.78 12.52, 1316.16 32 M1284.16 0 C1304.96 1.18, 1316.3 8.76, 1316.16 32 M1316.16 32 C1318.69 377.39, 1318.08 723.25, 1316.16 926.82 M1316.16 32 C1313.55 329.56, 1314.08 626.9, 1316.16 926.82 M1316.16 926.82 C1316.67 946.53, 1305.04 959.71, 1284.16 958.82 M1316.16 926.82 C1317.48 947.26, 1307.58 957.37, 1284.16 958.82 M1284.16 958.82 C978.68 959.07, 673.01 958.4, 32 958.82 M1284.16 958.82 C933.21 960.93, 582.03 961.06, 32 958.82 M32 958.82 C9.99 960.24, 0.88 946.18, 0 926.82 M32 958.82 C11.76 957.97, -0.69 949.48, 0 926.82 M0 926.82 C0.72 598, 1.03 268.02, 0 32 M0 926.82 C-1.31 687.3, -1.43 448.27, 0 32 M0 32 C1.91 12.56, 9.12 -0.9, 32 0 M0 32 C0.57 8.41, 8.45 -0.46, 32 0" stroke="#000000" stroke-width="1" fill="none"></path></g><g stroke-linecap="round" transform="translate(661.0951400314992 140.5676611587662) rotate(0 206.63096030420377 227.8733954756638)"><path d="M30.98 -1.26 L381.91 -0.59 L396.42 2.22 L404.78 7.1 L412.43 16.96 L412.29 30.78 L411.77 424.31 L409.71 438.08 L405.45 446.9 L395.78 451.86 L381.98 457.09 L31.51 454.74 L16.1 452 L9.17 446.08 L3.85 439.24 L-1.24 423.76 L0.98 31.2 L3.05 18.39 L7.99 7.96 L18.28 2.33 L30.88 0.92" stroke="none" stroke-width="0" fill="#868e96"></path><path d="M32 0 M32 0 C140.32 -1.26, 249.62 -0.12, 381.26 0 M32 0 C108.05 -2.1, 183.9 -2.42, 381.26 0 M381.26 0 C402.6 -1.53, 413.92 9.55, 413.26 32 M381.26 0 C403.69 -1.59, 412.1 8.87, 413.26 32 M413.26 32 C414.39 136.51, 413.28 240.33, 413.26 423.75 M413.26 32 C415.21 175.05, 415.99 319.27, 413.26 423.75 M413.26 423.75 C413.16 445.27, 404.51 455.83, 381.26 455.75 M413.26 423.75 C412.76 444.61, 403.86 455.56, 381.26 455.75 M381.26 455.75 C271.94 457.04, 162.83 457.14, 32 455.75 M381.26 455.75 C262.83 458.12, 145.55 457.31, 32 455.75 M32 455.75 C10.9 455.21, 1.15 443.15, 0 423.75 M32 455.75 C8.84 455.01, -0.65 444.87, 0 423.75 M0 423.75 C0.19 304.31, 1.39 183.92, 0 32 M0 423.75 C-1.43 311.47, -1.26 199.54, 0 32 M0 32 C-1.5 10.43, 9.42 -0.12, 32 0 M0 32 C-0.24 12.46, 12.02 -0.44, 32 0" stroke="black" stroke-width="1" fill="none"></path></g><g transform="translate(691.9932275536237 313.22143046620636) rotate(0 174 64.5)"><text x="0" y="90" font-family="Virgil, Segoe UI Emoji" font-size="101.94392523364473px" fill="white" text-anchor="start" style="white-space: pre;" direction="ltr">web.xml</text></g><g transform="translate(932.5113849195292 10) rotate(0 212.5 22.5)"><text x="0" y="32" font-family="Virgil, Segoe UI Emoji" font-size="36px" fill="#000000" text-anchor="start" style="white-space: pre;" direction="ltr">my-spring-mvc-application</text></g><g stroke-linecap="round"><g transform="translate(240.0900675563722 452.1603657945966) rotate(0 208.59989757713777 -92.8591140481222)"><path d="M0.44 0.46 C69.82 -30.59, 346.35 -155.09, 415.62 -186.18 M-0.78 -0.34 C69.05 -31.21, 348.66 -153.97, 417.98 -184.71" stroke="#000000" stroke-width="1" fill="none"></path></g><g transform="translate(240.0900675563722 452.1603657945966) rotate(0 208.59989757713777 -92.8591140481222)"><path d="M397.1 -165.05 C401.43 -169.55, 406.94 -174.84, 418.63 -184.02 M395.94 -164.53 C401.96 -168.82, 408.07 -174.71, 417.25 -185.31" stroke="#000000" stroke-width="1" fill="none"></path></g><g transform="translate(240.0900675563722 452.1603657945966) rotate(0 208.59989757713777 -92.8591140481222)"><path d="M388.82 -183.83 C395.22 -183.74, 402.77 -184.4, 418.63 -184.02 M387.66 -183.31 C396.04 -182.42, 404.44 -183.14, 417.25 -185.31" stroke="#000000" stroke-width="1" fill="none"></path></g></g><mask></mask><g stroke-linecap="round" transform="translate(839.7661354100516 417.4575738694241) rotate(0 113.89778071267386 85.23476304988168)"><path d="M30.84 1.5 L196.75 -0.57 L208.26 0.38 L221.38 9.54 L225.18 16.64 L227.32 33.23 L229.7 138.48 L224.18 152.6 L218.26 161.01 L210.76 167.71 L195.5 169.12 L31.2 171.35 L18.38 167.56 L8.2 161.2 L3.41 151.42 L0.21 138.28 L0.4 24.17 L0.64 16.48 L7.08 7.05 L18.07 0.44 L30.34 1.2" stroke="none" stroke-width="0" fill="#868e96"></path><path d="M32 0 M32 0 C81.47 0.57, 133.53 0.11, 195.8 0 M32 0 C64.68 -1.69, 98.18 -0.88, 195.8 0 M195.8 0 C218.77 -1.86, 228.7 12.07, 227.8 32 M195.8 0 C219.12 -2.18, 228.9 8.58, 227.8 32 M227.8 32 C227.02 73.97, 228.04 113.57, 227.8 138.47 M227.8 32 C226.86 67.64, 226.66 104.72, 227.8 138.47 M227.8 138.47 C226.38 161.01, 215.63 169.65, 195.8 170.47 M227.8 138.47 C226.76 157.82, 218.88 171.15, 195.8 170.47 M195.8 170.47 C150.99 173.47, 103.28 169.83, 32 170.47 M195.8 170.47 C134.88 169.76, 75.8 170.02, 32 170.47 M32 170.47 C11.59 171.54, -1.09 161.69, 0 138.47 M32 170.47 C9.4 172.16, 0.58 158.53, 0 138.47 M0 138.47 C1.99 101.54, -0.5 67.15, 0 32 M0 138.47 C0.06 108.82, 0.43 80.95, 0 32 M0 32 C1.36 12.41, 11.84 1.93, 32 0 M0 32 C0.63 10.01, 12.68 1.31, 32 0" stroke="#000000" stroke-width="1" fill="none"></path></g><g transform="translate(857.86909393392 461.6121091846462) rotate(0 100.5 50)"><text x="0" y="35" font-family="Virgil, Segoe UI Emoji" font-size="39.81878919299067px" fill="white" text-anchor="start" style="white-space: pre;" direction="ltr">dispatcher</text><text x="0" y="85" font-family="Virgil, Segoe UI Emoji" font-size="39.81878919299067px" fill="white" text-anchor="start" style="white-space: pre;" direction="ltr">servlet</text></g><g stroke-linecap="round"><g transform="translate(835.376225085681 465.50773903320373) rotate(0 -0.4518192019307321 0.05069235777244785)"><path d="M-1.13 1 C-1.37 1.09, -1.84 0.84, -1.61 0.69 M0.48 0.48 C0.65 0.23, 0.82 -0.49, 0.75 -0.92" stroke="black" stroke-width="1" fill="none"></path></g><g transform="translate(835.376225085681 465.50773903320373) rotate(0 -0.4518192019307321 0.05069235777244785)"><path d="M0.97 -0.48 C0.92 -0.54, 0.84 -0.74, 0.71 -0.96 M0.91 -0.44 C0.85 -0.65, 0.81 -0.82, 0.74 -0.91" stroke="black" stroke-width="1" fill="none"></path></g><g transform="translate(835.376225085681 465.50773903320373) rotate(0 -0.4518192019307321 0.05069235777244785)"><path d="M0.63 -0.48 C0.67 -0.53, 0.7 -0.74, 0.71 -0.96 M0.57 -0.43 C0.64 -0.65, 0.73 -0.82, 0.74 -0.91" stroke="black" stroke-width="1" fill="none"></path></g></g><mask></mask><g stroke-linecap="round"><g transform="translate(1065.4899258956107 455.00948773820096) rotate(0 180.1241964995968 -126.77031395278482)"><path d="M-0.93 1.15 C59.27 -41.4, 301.06 -212.24, 361.18 -254.69 M0.78 0.71 C60.86 -41.71, 300.22 -210.6, 360.45 -253.29" stroke="black" stroke-width="1" fill="none"></path></g><g transform="translate(1065.4899258956107 455.00948773820096) rotate(0 180.1241964995968 -126.77031395278482)"><path d="M345.27 -227.93 C347.91 -237.46, 354.91 -243.6, 359.85 -254.3 M343.99 -228.99 C348.82 -235.57, 354.2 -244.15, 360.88 -253.2" stroke="black" stroke-width="1" fill="none"></path></g><g transform="translate(1065.4899258956107 455.00948773820096) rotate(0 180.1241964995968 -126.77031395278482)"><path d="M333.43 -244.69 C339.69 -249.12, 350.23 -250.25, 359.85 -254.3 M332.15 -245.75 C340.89 -246.96, 350.05 -250.19, 360.88 -253.2" stroke="black" stroke-width="1" fill="none"></path></g></g><mask></mask><g stroke-linecap="round"><g transform="translate(1069.8234015539524 455.50108006834284) rotate(0 185.3031251365967 -41.0870787132734)"><path d="M-0.51 0.35 C61.31 -13.16, 309.11 -66.92, 371.12 -80.58 M1.42 -0.51 C63.11 -14.44, 308.8 -69.16, 370.44 -82.53" stroke="black" stroke-width="1" fill="none"></path></g><g transform="translate(1069.8234015539524 455.50108006834284) rotate(0 185.3031251365967 -41.0870787132734)"><path d="M345.7 -65.59 C353.62 -69.84, 359.85 -74.88, 372.35 -82.16 M344.45 -66.6 C353.64 -71.39, 362.93 -78.5, 370.61 -81.7" stroke="black" stroke-width="1" fill="none"></path></g><g transform="translate(1069.8234015539524 455.50108006834284) rotate(0 185.3031251365967 -41.0870787132734)"><path d="M341.29 -85.63 C350.68 -83.53, 358.3 -82.24, 372.35 -82.16 M340.04 -86.64 C350.95 -84.15, 361.84 -84.01, 370.61 -81.7" stroke="black" stroke-width="1" fill="none"></path></g></g><mask></mask><g stroke-linecap="round"><g transform="translate(1076.0874793071553 454.11291384956644) rotate(0 185.77655501909646 48.71348389127047)"><path d="M-1.19 0.48 C61.13 16.68, 310.58 80.38, 372.74 96.27 M0.38 -0.31 C62.67 16.16, 309.59 81.54, 371.91 97.74" stroke="black" stroke-width="1" fill="none"></path></g><g transform="translate(1076.0874793071553 454.11291384956644) rotate(0 185.77655501909646 48.71348389127047)"><path d="M342.84 100.87 C347.84 99.04, 353.15 100.37, 373.44 99.73 M342.73 99.55 C353.09 99.33, 362.47 97.42, 371.28 98.44" stroke="black" stroke-width="1" fill="none"></path></g><g transform="translate(1076.0874793071553 454.11291384956644) rotate(0 185.77655501909646 48.71348389127047)"><path d="M348.06 81.02 C351.86 83.13, 356.12 88.45, 373.44 99.73 M347.94 79.71 C356.47 86.59, 363.99 91.76, 371.28 98.44" stroke="black" stroke-width="1" fill="none"></path></g></g><mask></mask><g stroke-linecap="round" transform="translate(1484.8911797921533 148.7510655272497) rotate(0 203.9031588480425 71.60478822422897)"><path d="M31.54 -0.48 L376.27 1.69 L388.12 1.25 L400.53 7.84 L404.36 11.59 L405.77 26.01 L407.82 110.68 L406.48 123.35 L404.72 129.08 L396.6 140.42 L389.28 142.5 L375.09 141.97 L30.33 142.46 L18.52 141.52 L6.13 134.03 L4.38 130.66 L1.48 118.79 L-0.3 24.28 L2.94 16.68 L9.28 8.45 L16.05 1.75 L31.9 -0.87" stroke="none" stroke-width="0" fill="#868e96"></path><path d="M32 0 M32 0 C140.51 -0.89, 250.71 -1.59, 375.81 0 M32 0 C166.9 2.13, 302.22 2.34, 375.81 0 M375.81 0 C396.28 -0.04, 407.95 12.65, 407.81 32 M375.81 0 C395.94 0.97, 406.96 10.63, 407.81 32 M407.81 32 C407.96 58.71, 408.66 80.93, 407.81 111.21 M407.81 32 C407.66 62.28, 408.06 92.75, 407.81 111.21 M407.81 111.21 C408.87 132.62, 397.72 145.15, 375.81 143.21 M407.81 111.21 C406.14 133.3, 398.58 145.46, 375.81 143.21 M375.81 143.21 C285.56 141.6, 196.18 143.18, 32 143.21 M375.81 143.21 C262.66 141.94, 149.68 142.36, 32 143.21 M32 143.21 C9.01 141.7, 0.06 133.15, 0 111.21 M32 143.21 C12.19 141.04, 0.66 130.79, 0 111.21 M0 111.21 C1.89 91.8, 2.12 68.56, 0 32 M0 111.21 C-0.11 88.76, 0.05 64.25, 0 32 M0 32 C-1.85 12.04, 9.32 -1.09, 32 0 M0 32 C-0.66 11.46, 9.12 1.58, 32 0" stroke="black" stroke-width="1" fill="none"></path></g><g transform="translate(1509.4413928976032 194.12659829087465) rotate(0 170.5 22.5)"><text x="0" y="32" font-family="Virgil, Segoe UI Emoji" font-size="36px" fill="black" text-anchor="start" style="white-space: pre;" direction="ltr">UserController.java</text></g><g stroke-linecap="round" transform="translate(1486.9370308842745 309.0094010767149) rotate(0 203.9031588480426 71.60478822422897)"><path d="M33.54 1.66 L376.81 1.37 L391.12 0.62 L397.96 9.38 L401.96 11.41 L406.73 25.19 L406.46 112.59 L403.94 124.91 L402.67 130.13 L396.88 139.01 L391.62 140.18 L376.81 143.14 L31.99 143.67 L19.64 142.77 L6.86 136.09 L5.19 130.4 L0.85 118.47 L1.82 22.85 L3.36 19.13 L6.65 9.1 L17.76 1.57 L33.79 1.04" stroke="none" stroke-width="0" fill="#868e96"></path><path d="M32 0 M32 0 C140.95 0.9, 250.61 0.05, 375.81 0 M32 0 C143.86 1.02, 254.82 1.13, 375.81 0 M375.81 0 C396.55 0.09, 409.56 9.92, 407.81 32 M375.81 0 C398.33 -0.06, 410.05 10.67, 407.81 32 M407.81 32 C406.44 57.93, 406.87 83.64, 407.81 111.21 M407.81 32 C407.77 48.1, 407.96 65.23, 407.81 111.21 M407.81 111.21 C407.42 132.4, 396 144.16, 375.81 143.21 M407.81 111.21 C407.36 130.42, 396.81 140.93, 375.81 143.21 M375.81 143.21 C291.04 143.29, 205.55 144.45, 32 143.21 M375.81 143.21 C265.73 141.51, 156.8 140.86, 32 143.21 M32 143.21 C10.54 142.56, 1.76 131.44, 0 111.21 M32 143.21 C11.07 143.71, -2.04 133.37, 0 111.21 M0 111.21 C-1.76 84.23, 0.79 60.39, 0 32 M0 111.21 C1.42 88.16, 0.17 63.56, 0 32 M0 32 C0.28 11.2, 12.18 0.72, 32 0 M0 32 C-1.75 12.91, 10.72 -1.64, 32 0" stroke="black" stroke-width="1" fill="none"></path></g><g stroke-linecap="round" transform="translate(1492.3926337965963 467.22188553405874) rotate(0 203.9031588480425 71.60478822422897)"><path d="M30.49 -0.94 L376.44 -0.14 L388.3 2.19 L399.21 8.09 L405.06 11.75 L408.34 24.45 L409.75 111.22 L406.24 124.92 L403.04 129.46 L395.78 137.89 L390.52 139.52 L373.82 142.91 L33.49 141.26 L19.88 139.37 L7.62 135.07 L3.36 131.66 L0.11 116.86 L0.21 22.52 L0.96 19.89 L9.16 8.83 L16.14 2.55 L31.89 0.38" stroke="none" stroke-width="0" fill="#868e96"></path><path d="M32 0 M32 0 C111.4 2.04, 188.72 1.52, 375.81 0 M32 0 C124.16 1.4, 215.5 1.49, 375.81 0 M375.81 0 C397.73 1.57, 407.16 9.53, 407.81 32 M375.81 0 C396.15 1.63, 409.43 10.65, 407.81 32 M407.81 32 C408.37 48.94, 406.58 67.88, 407.81 111.21 M407.81 32 C407.65 58.83, 408.43 83, 407.81 111.21 M407.81 111.21 C408.2 130.89, 398.24 144.59, 375.81 143.21 M407.81 111.21 C406.83 133.77, 398.34 142.05, 375.81 143.21 M375.81 143.21 C293.23 143.75, 209.23 143.98, 32 143.21 M375.81 143.21 C244.9 143.56, 112.79 142.95, 32 143.21 M32 143.21 C12.27 143.09, 0.42 131.48, 0 111.21 M32 143.21 C8.55 144.04, 2.2 131.56, 0 111.21 M0 111.21 C-0.01 83.71, 1.18 56.54, 0 32 M0 111.21 C-0.36 85.93, 0.33 58.94, 0 32 M0 32 C-0.71 11.85, 10.87 1.37, 32 0 M0 32 C0.09 9.37, 10.86 -0.74, 32 0" stroke="black" stroke-width="1" fill="none"></path></g><g transform="translate(1512.1691943537644 356.43078493246037) rotate(0 172.5 22.5)"><text x="0" y="32" font-family="Virgil, Segoe UI Emoji" font-size="36px" fill="black" text-anchor="start" style="white-space: pre;" direction="ltr">LoginController.java</text></g><g transform="translate(1524.4443009064894 526.4627730302075) rotate(0 154.5 17.5)"><text x="0" y="25" font-family="Virgil, Segoe UI Emoji" font-size="28px" fill="black" text-anchor="start" style="white-space: pre;" direction="ltr">WelcomeController.java</text></g><g stroke-linecap="round"><g transform="translate(1433.0629521250926 589.2910006972683) rotate(0 -139.93546284849265 -41.791501204191036)"><path d="M0.91 -0.63 C-45.88 -14.55, -233.97 -69.05, -280.78 -82.95" stroke="black" stroke-width="1.5" fill="none" stroke-dasharray="8 9"></path></g><g transform="translate(1433.0629521250926 589.2910006972683) rotate(0 -139.93546284849265 -41.791501204191036)"><path d="M-251.9 -86.84 C-259.36 -84.66, -270.15 -83.49, -281.83 -82.3" stroke="black" stroke-width="1.5" fill="none"></path></g><g transform="translate(1433.0629521250926 589.2910006972683) rotate(0 -139.93546284849265 -41.791501204191036)"><path d="M-257.67 -67.15 C-263.5 -70.89, -272.56 -75.6, -281.83 -82.3" stroke="black" stroke-width="1.5" fill="none"></path></g></g><mask></mask><g mask="url(#mask-yjKZQDQtqLoamfwA1vXp-)" stroke-linecap="round"><g transform="translate(1436.608342165529 417.63203795685274) rotate(0 -143.0462601937678 23.989143260414323)"><path d="M0.74 -0.95 C-47.12 7.23, -238.84 40.42, -286.84 48.93" stroke="black" stroke-width="1.5" fill="none" stroke-dasharray="8 9"></path></g><g transform="translate(1436.608342165529 417.63203795685274) rotate(0 -143.0462601937678 23.989143260414323)"><path d="M-262.41 33.27 C-269.69 37.72, -276.25 43.49, -286.91 47.24" stroke="black" stroke-width="1.5" fill="none"></path></g><g transform="translate(1436.608342165529 417.63203795685274) rotate(0 -143.0462601937678 23.989143260414323)"><path d="M-258.88 53.48 C-267.28 51.32, -275.01 50.44, -286.91 47.24" stroke="black" stroke-width="1.5" fill="none"></path></g></g><mask id="mask-yjKZQDQtqLoamfwA1vXp-"><rect x="0" y="0" fill="#fff" width="1823.027495062445" height="566.7324641677527"></rect><rect x="1259.398765717071" y="424.6822510623027" fill="#000" width="68" height="35" opacity="1"></rect></mask><g transform="translate(1259.398765717071 424.6822510623027) rotate(0 34.16331625469013 16.93893015496434)"><text x="34" y="25" font-family="Virgil, Segoe UI Emoji" font-size="28px" fill="black" text-anchor="middle" style="white-space: pre;" direction="ltr">Login</text></g><g mask="url(#mask-_vni09f8ynN0mJka4d6VR)" stroke-linecap="round"><g transform="translate(1447.5195479901736 240.32494330638076) rotate(0 -149.96644469802777 92.90015077423652)"><path d="M0 -0.73 C-50.15 30.52, -249.91 155.18, -299.93 186.53" stroke="black" stroke-width="1.5" fill="none" stroke-dasharray="8 9"></path></g><g transform="translate(1447.5195479901736 240.32494330638076) rotate(0 -149.96644469802777 92.90015077423652)"><path d="M-282.68 163.09 C-289.18 171.66, -294.82 181.98, -300.69 187.94" stroke="black" stroke-width="1.5" fill="none"></path></g><g transform="translate(1447.5195479901736 240.32494330638076) rotate(0 -149.96644469802777 92.90015077423652)"><path d="M-271.8 180.49 C-282.28 182.48, -292.04 186.22, -300.69 187.94" stroke="black" stroke-width="1.5" fill="none"></path></g></g><mask id="mask-_vni09f8ynN0mJka4d6VR"><rect x="0" y="0" fill="#fff" width="1847.5777081678953" height="527.1793430534166"></rect><rect x="1264.9904679013127" y="316.25214317989867" fill="#000" width="65" height="35" opacity="1"></rect></mask><g transform="translate(1264.9904679013125 316.25214317989867) rotate(0 32.562635390833066 16.972950900718615)"><text x="32.5" y="25" font-family="Virgil, Segoe UI Emoji" font-size="28px" fill="black" text-anchor="middle" style="white-space: pre;" direction="ltr">User</text></g><g transform="translate(1246.2085523780565 560.4241919603018) rotate(0 54 17.5)"><text x="0" y="25" font-family="Virgil, Segoe UI Emoji" font-size="28px" fill="black" text-anchor="start" style="white-space: pre;" direction="ltr">Welcome</text></g><g stroke-linecap="round" transform="translate(665.1868422157407 639.7553276362489) rotate(0 205.9490099401637 211.40461285248574)"><path d="M30.76 -0.37 L378.12 -1.3 L392.49 3.81 L404.74 7.55 L409.98 18.11 L413.48 30.23 L410.78 388.89 L411.72 403.09 L402.53 413.58 L393.85 422.6 L380.84 421.59 L33.3 422.17 L17.37 419.05 L8.16 414.95 L3.46 403.6 L1.82 392.61 L-1.28 33.63 L2.52 18.53 L8.62 9.47 L19.47 3.07 L32.63 0.56" stroke="none" stroke-width="0" fill="#e64980"></path><path d="M32 0 M32 0 C115.45 3.3, 201.39 2.47, 379.9 0 M32 0 C122.17 0.89, 211.52 0.83, 379.9 0 M379.9 0 C402.62 -1.95, 410.06 12.51, 411.9 32 M379.9 0 C401.75 -1.44, 412.24 8.84, 411.9 32 M411.9 32 C410.53 167.63, 409.9 305.05, 411.9 390.81 M411.9 32 C410.54 104.69, 410.95 176.37, 411.9 390.81 M411.9 390.81 C411.74 411.6, 400.75 420.96, 379.9 422.81 M411.9 390.81 C412.53 410.19, 400.12 424.46, 379.9 422.81 M379.9 422.81 C246.5 422.84, 116.37 422.38, 32 422.81 M379.9 422.81 C289.22 421.36, 199.29 420.63, 32 422.81 M32 422.81 C10.06 423.43, 1.97 410.3, 0 390.81 M32 422.81 C10.68 421.89, 1.41 410.5, 0 390.81 M0 390.81 C-1.23 273.49, -2.09 156.71, 0 32 M0 390.81 C1.02 286.09, 0.83 181.8, 0 32 M0 32 C0.38 10.47, 11.38 -0.07, 32 0 M0 32 C-2.23 11.97, 12.17 -1.19, 32 0" stroke="black" stroke-width="1" fill="none"></path></g><g transform="translate(689.7370553211907 959.1388074721455) rotate(0 181.5 27.5)"><text x="0" y="39" font-family="Virgil, Segoe UI Emoji" font-size="43.637844077251046px" fill="white" text-anchor="start" style="white-space: pre;" direction="ltr">Spring-servlet.xml</text></g><g stroke-linecap="round" transform="translate(1012.9815278762818 527.9154679336434) rotate(0 22.504362013329228 23.868262741409694)"><path d="M28.68 0.16 C33.04 1.2, 37.42 5.54, 40.26 9.84 C43.1 14.13, 45.98 20.89, 45.72 25.94 C45.46 31, 42.32 36.68, 38.68 40.17 C35.04 43.66, 28.8 46.51, 23.88 46.87 C18.96 47.24, 12.99 45.27, 9.17 42.35 C5.35 39.44, 2.09 34.06, 0.96 29.37 C-0.17 24.67, 0.24 18.63, 2.42 14.21 C4.59 9.78, 9.29 4.89, 14.02 2.8 C18.74 0.71, 27.76 1.79, 30.75 1.66 C33.74 1.54, 32.38 1.7, 31.97 2.06 M20.56 0.73 C25.31 -0.12, 31.97 2.08, 35.73 4.69 C39.48 7.31, 41.69 11.75, 43.11 16.45 C44.52 21.14, 45.71 27.95, 44.23 32.86 C42.75 37.76, 38.56 43.3, 34.22 45.88 C29.87 48.45, 22.88 49.76, 18.17 48.31 C13.45 46.86, 8.74 41.5, 5.94 37.15 C3.14 32.81, 1.45 27.27, 1.36 22.26 C1.28 17.26, 2.35 10.9, 5.42 7.14 C8.5 3.38, 17.67 0.79, 19.81 -0.29 C21.95 -1.36, 18.26 0.26, 18.28 0.69" stroke="none" stroke-width="0" fill="#e64980"></path><path d="M26.49 -0.32 C30.91 0.62, 37.05 5.62, 40.01 9.78 C42.96 13.93, 44.42 19.66, 44.25 24.62 C44.07 29.57, 42.01 35.75, 38.94 39.51 C35.87 43.27, 30.49 46.25, 25.81 47.19 C21.12 48.14, 14.84 47.62, 10.83 45.18 C6.82 42.73, 3.18 37.53, 1.76 32.52 C0.33 27.52, 0.5 20.23, 2.26 15.17 C4.02 10.11, 7.87 4.62, 12.32 2.16 C16.76 -0.3, 26.01 0.4, 28.94 0.42 C31.87 0.44, 30.12 1.79, 29.91 2.26 M19.1 -0.25 C23.48 -1.47, 28.97 -0.07, 32.94 2.9 C36.91 5.87, 40.99 12.55, 42.92 17.58 C44.86 22.6, 45.95 28.67, 44.56 33.05 C43.18 37.43, 38.94 41.6, 34.6 43.85 C30.26 46.09, 23.39 47.15, 18.51 46.53 C13.63 45.9, 8.44 44.06, 5.33 40.1 C2.22 36.14, -0.23 27.99, -0.15 22.77 C-0.07 17.55, 2.4 12.54, 5.83 8.8 C9.25 5.07, 17.98 1.79, 20.38 0.36 C22.79 -1.07, 20.31 -0.22, 20.25 0.21" stroke="white" stroke-width="1" fill="none"></path></g><g stroke-linecap="round"><g transform="translate(1036.1678402536513 556.557383223335) rotate(0 -11.239986820326294 43.88730028809283)"><path d="M0.25 0.58 C-3.46 15.15, -19.06 73.63, -22.73 87.93 M-1.07 -0.16 C-4.38 14.01, -16.92 71.58, -20.5 86.15" stroke="black" stroke-width="1" fill="none"></path></g><g transform="translate(1036.1678402536513 556.557383223335) rotate(0 -11.239986820326294 43.88730028809283)"><path d="M-23.21 54.85 C-22.01 64.25, -23.63 72.46, -21.88 84.63 M-23.81 55.69 C-23.45 63.15, -22.39 70.51, -20.27 85.61" stroke="black" stroke-width="1" fill="none"></path></g><g transform="translate(1036.1678402536513 556.557383223335) rotate(0 -11.239986820326294 43.88730028809283)"><path d="M-3.21 59.46 C-7.29 67.69, -14.17 74.68, -21.88 84.63 M-3.82 60.29 C-8.57 66.55, -12.57 72.74, -20.27 85.61" stroke="black" stroke-width="1" fill="none"></path></g></g><mask></mask><g transform="translate(1051.1707482625375 570.1963905041406) rotate(0 61.37553276362485 76.37844077251094)" stroke="none"><path fill="white" d="M 1.39,-0.69 Q 1.39,-0.69 2.54,1.66 3.68,4.03 5.32,6.97 6.96,9.91 9.60,14.29 12.25,18.68 18.42,26.36 24.59,34.04 32.31,42.81 40.03,51.58 49.20,61.98 58.37,72.38 69.71,85.04 81.05,97.69 88.62,106.21 96.19,114.73 100.98,120.32 105.77,125.91 108.60,129.48 111.43,133.05 113.40,135.32 115.36,137.59 116.63,139.40 117.91,141.21 118.91,142.75 119.92,144.30 120.48,145.93 121.03,147.56 120.27,149.48 119.51,151.39 118.16,151.60 116.82,151.81 115.14,150.46 113.46,149.10 111.86,147.36 110.26,145.62 108.82,144.08 107.37,142.54 105.67,141.14 103.97,139.75 102.08,138.35 100.19,136.95 98.88,136.00 97.58,135.06 96.57,134.29 95.57,133.52 94.73,132.85 93.90,132.18 93.74,131.99 93.57,131.81 93.46,131.59 93.35,131.37 93.29,131.14 93.23,130.90 93.23,130.65 93.23,130.40 93.29,130.17 93.35,129.93 93.46,129.71 93.58,129.49 93.74,129.31 93.90,129.12 94.11,128.98 94.31,128.84 94.54,128.76 94.77,128.67 95.02,128.64 95.26,128.61 95.50,128.64 95.75,128.67 95.98,128.76 96.21,128.85 96.41,128.99 96.61,129.13 97.77,129.96 98.93,130.79 100.73,132.93 102.53,135.07 105.08,137.43 107.63,139.79 110.28,141.99 112.92,144.19 114.86,145.96 116.80,147.72 118.34,148.78 119.88,149.83 121.02,150.22 122.16,150.61 122.32,150.75 122.48,150.89 122.59,151.07 122.71,151.24 122.79,151.44 122.86,151.64 122.89,151.85 122.91,152.06 122.88,152.27 122.86,152.48 122.78,152.67 122.71,152.87 122.58,153.04 122.46,153.22 122.31,153.36 122.15,153.50 121.96,153.59 121.77,153.69 121.57,153.74 121.36,153.79 121.15,153.79 120.94,153.79 120.73,153.74 120.53,153.68 120.34,153.59 120.15,153.49 120.30,151.14 120.44,148.79 120.65,146.06 120.85,143.34 120.98,139.78 121.10,136.22 120.39,132.09 119.68,127.95 118.99,124.18 118.30,120.41 117.64,118.08 116.98,115.76 116.41,114.00 115.85,112.25 115.82,112.01 115.80,111.77 115.84,111.53 115.89,111.30 116.02,111.09 116.14,110.88 116.32,110.72 116.50,110.56 116.73,110.47 116.95,110.38 117.19,110.36 117.43,110.35 117.67,110.41 117.90,110.47 118.10,110.60 118.31,110.74 118.46,110.93 118.60,111.12 118.68,111.35 118.76,111.58 118.77,111.82 118.77,112.06 118.70,112.29 118.62,112.52 118.48,112.71 118.33,112.91 118.13,113.05 117.93,113.19 117.70,113.25 117.47,113.32 117.23,113.31 116.99,113.30 116.76,113.21 116.53,113.13 116.35,112.97 116.16,112.82 116.03,112.61 115.91,112.41 115.85,112.17 115.80,111.93 115.82,111.69 115.84,111.45 115.94,111.23 116.04,111.01 116.21,110.83 116.37,110.65 116.58,110.54 116.80,110.42 117.03,110.38 117.27,110.34 117.51,110.37 117.75,110.41 117.97,110.52 118.18,110.63 118.35,110.81 118.52,110.98 118.62,111.20 118.73,111.42 118.73,111.42 118.73,111.42 119.19,113.20 119.66,114.98 120.38,117.43 121.11,119.88 121.84,123.66 122.57,127.45 123.36,131.86 124.15,136.28 124.11,139.92 124.06,143.56 123.11,147.08 122.16,150.61 122.32,150.75 122.48,150.89 122.59,151.07 122.71,151.24 122.79,151.44 122.86,151.64 122.89,151.85 122.91,152.06 122.88,152.27 122.86,152.48 122.78,152.67 122.71,152.87 122.59,153.04 122.46,153.22 122.31,153.36 122.15,153.50 121.96,153.59 121.77,153.69 121.57,153.74 121.36,153.79 121.15,153.79 120.94,153.79 120.73,153.74 120.53,153.68 120.34,153.59 120.15,153.49 119.14,152.92 118.13,152.36 116.46,151.17 114.79,149.99 112.86,148.32 110.93,146.66 108.16,144.48 105.39,142.31 102.59,139.90 99.79,137.49 98.21,135.79 96.64,134.10 95.27,133.14 93.90,132.18 93.74,132.00 93.57,131.81 93.46,131.59 93.35,131.37 93.29,131.14 93.23,130.90 93.23,130.65 93.23,130.40 93.29,130.17 93.35,129.93 93.46,129.71 93.58,129.49 93.74,129.31 93.90,129.12 94.11,128.98 94.31,128.84 94.54,128.76 94.77,128.67 95.01,128.64 95.26,128.61 95.50,128.64 95.75,128.67 95.98,128.76 96.21,128.85 96.41,128.99 96.61,129.13 97.33,129.93 98.06,130.73 98.87,131.58 99.69,132.43 100.82,133.45 101.96,134.46 103.96,135.84 105.96,137.22 107.88,138.66 109.80,140.11 111.34,141.55 112.89,143.00 114.63,144.60 116.37,146.20 117.11,147.22 117.85,148.24 117.63,147.00 117.41,145.77 116.58,144.25 115.75,142.73 114.56,141.02 113.36,139.32 111.36,137.00 109.36,134.69 106.56,131.16 103.75,127.64 98.97,122.07 94.20,116.50 86.63,107.99 79.06,99.48 67.70,86.82 56.34,74.17 47.16,63.77 37.98,53.38 30.21,44.58 22.44,35.78 16.14,27.96 9.84,20.15 7.14,15.74 4.44,11.33 2.73,8.35 1.01,5.37 -0.19,3.03 -1.39,0.69 -1.46,0.52 -1.52,0.34 -1.54,0.15 -1.56,-0.03 -1.53,-0.21 -1.50,-0.40 -1.43,-0.57 -1.36,-0.75 -1.25,-0.90 -1.14,-1.05 -1.00,-1.18 -0.86,-1.30 -0.69,-1.38 -0.52,-1.47 -0.34,-1.51 -0.15,-1.55 0.03,-1.55 0.21,-1.54 0.40,-1.49 0.58,-1.44 0.74,-1.35 0.91,-1.26 1.05,-1.14 1.18,-1.01 1.29,-0.85 1.39,-0.69 1.39,-0.69 L 1.39,-0.69 Z"></path></g><g transform="translate(1183.4691188863512 728.7756836984514) rotate(0 324 45)"><text x="0" y="32" font-family="Virgil, Segoe UI Emoji" font-size="36px" fill="white" text-anchor="start" style="white-space: pre;" direction="ltr">Dispatcher servlet has reference to</text><text x="0" y="77" font-family="Virgil, Segoe UI Emoji" font-size="36px" fill="white" text-anchor="start" style="white-space: pre;" direction="ltr">spring-servlet.xml</text></g><g transform="translate(704.7399633300769 775.1483084531901) rotate(0 157.96576016690017 67.58734017091257)"><text x="0" y="26.793670085456277" font-family="Cascadia, Segoe UI Emoji" font-size="28.292374955265696px" fill="white" text-anchor="start" style="white-space: pre;" direction="ltr">&lt;View Resolver&gt;</text><text x="0" y="60.587340170912555" font-family="Cascadia, Segoe UI Emoji" font-size="28.292374955265696px" fill="white" text-anchor="start" style="white-space: pre;" direction="ltr"></text><text x="0" y="94.38101025636882" font-family="Cascadia, Segoe UI Emoji" font-size="28.292374955265696px" fill="white" text-anchor="start" style="white-space: pre;" direction="ltr">prefix: web-inf/jsp</text><text x="0" y="128.1746803418251" font-family="Cascadia, Segoe UI Emoji" font-size="28.292374955265696px" fill="white" text-anchor="start" style="white-space: pre;" direction="ltr">suffix.jsp</text></g><g stroke-linecap="round"><g transform="translate(661.0951400314992 806.2113328016061) rotate(0 -211.90474375294576 -134.0523750813701)"><path d="M0.21 0.77 C-70.55 -44.24, -352.86 -224.27, -423.5 -268.87 M-1.13 0.12 C-72.08 -44.25, -353.54 -222.98, -424.02 -267.77" stroke="black" stroke-width="1" fill="none"></path></g><g transform="translate(661.0951400314992 806.2113328016061) rotate(0 -211.90474375294576 -134.0523750813701)"><path d="M-393.45 -259.99 C-407.63 -262.65, -415.75 -265.1, -423.08 -269.63 M-395.34 -261.07 C-405.21 -263.67, -418.3 -265.58, -423.14 -268.09" stroke="black" stroke-width="1" fill="none"></path></g><g transform="translate(661.0951400314992 806.2113328016061) rotate(0 -211.90474375294576 -134.0523750813701)"><path d="M-404.45 -242.66 C-414.5 -252.13, -418.31 -261.35, -423.08 -269.63 M-406.34 -243.74 C-411.9 -253.1, -420.71 -261.75, -423.14 -268.09" stroke="black" stroke-width="1" fill="none"></path></g></g><mask></mask><g transform="translate(375.7234952745341 690.9265726518686) rotate(33.091417330793725 67 22.5)"><text x="0" y="32" font-family="Virgil, Segoe UI Emoji" font-size="36px" fill="black" text-anchor="start" style="white-space: pre;" direction="ltr">.jsp file</text></g><g stroke-linecap="round" transform="translate(348.93925723908853 639.2555662285293) rotate(33.091417330793725 17.730709465047156 30.687766381812423)"><path d="M8.87 1.3 L29.65 -0.01 L33.64 3.65 L33.72 52.45 L34.21 60.47 L30.32 61.58 L6.69 62 L1.76 57.71 L1.51 5.7 L6.55 -0.84 L10.55 -1.1" stroke="none" stroke-width="0" fill="#e64980"></path><path d="M8.87 0 M8.87 0 C15.39 -1.75, 18.68 -1.55, 26.6 0 M8.87 0 C16.17 0.4, 22.02 -0.18, 26.6 0 M26.6 0 C30.94 0.44, 34.48 3.83, 35.46 8.87 M26.6 0 C31.18 -0.88, 34.74 3.59, 35.46 8.87 M35.46 8.87 C34.44 23.98, 34.51 39.91, 35.46 52.51 M35.46 8.87 C35.63 21.59, 34.67 35.71, 35.46 52.51 M35.46 52.51 C34.92 57.23, 32.57 60.3, 26.6 61.38 M35.46 52.51 C34.09 58.24, 31.93 62.7, 26.6 61.38 M26.6 61.38 C19.35 59.72, 13.48 61.02, 8.87 61.38 M26.6 61.38 C19.53 60.95, 14.33 61.3, 8.87 61.38 M8.87 61.38 C2.31 61.96, -1.25 56.49, 0 52.51 M8.87 61.38 C3.98 61.97, 1.71 60.13, 0 52.51 M0 52.51 C0.66 41.24, 0.65 33.86, 0 8.87 M0 52.51 C0.25 43.72, -0.95 32.91, 0 8.87 M0 8.87 C-0.02 4.32, 2.55 -1.09, 8.87 0 M0 8.87 C-0.66 1.42, 1.46 1.86, 8.87 0" stroke="black" stroke-width="1" fill="none"></path></g><g transform="translate(254.7647854654893 258.06956208156635) rotate(335.8827524551326 170.5 55.5)"><text x="0" y="26" font-family="Virgil, Segoe UI Emoji" font-size="29.054515497622855px" fill="black" text-anchor="start" style="white-space: pre;" direction="ltr">localhost:8080/login</text><text x="0" y="63" font-family="Virgil, Segoe UI Emoji" font-size="29.054515497622855px" fill="black" text-anchor="start" style="white-space: pre;" direction="ltr">localhost:8080/welcome</text><text x="0" y="100" font-family="Virgil, Segoe UI Emoji" font-size="29.054515497622855px" fill="black" text-anchor="start" style="white-space: pre;" direction="ltr">localhost:8080/users</text></g><g transform="translate(1292.6080083534457 213.584666769671) rotate(321.32423218844593 50.07341947437885 19.593946750843884)"><text x="0" y="27.187893501687796" font-family="Virgil, Segoe UI Emoji" font-size="31.350314801350237px" fill="black" text-anchor="start" style="white-space: pre;" direction="ltr">/users</text></g></svg>